# xmcd
#
# Track frame offsets:
# 150
# 10285
# 21092
# 37653
# 50501
# 63212
# 73342
# 85537
# 95708
# 112875
# 124504
# 133088
# 158866
#
# Disc length: 2391 seconds
#
#
# Revision: 2
# Processed by: cddbd v1.5.2PL0 Copyright (c) Steve Scherf et al.
# Submitted via: FreeRIP 2.951 
#
DISCID=a109550d
DTITLE=MUSICAS DO SECULO - A musica do Seculo - Vol. 46
DYEAR=1900
DGENRE=Blues
TTITLE0=Brian Hyland - Itsy Bitsy Teenie Weenie
TTITLE1=Sam and Dave - Soul Sister, Brown Sugar
TTITLE2=Debarge - Dance All Night
TTITLE3=The Commodores - Kee On Dancing
TTITLE4=First Choice - Armed and Extremely Dangerous
TTITLE5=Tommy Roe - Dizzy
TTITLE6=The Shireless - Dedicated The One I Love
TTITLE7=Barbara Mandrell - Please, Release Me
TTITLE8=Sabrina - All of Me
TTITLE9=Ella Fitzgerald - Sing Me a Swing Song
TTITLE10=Al Jolson - Swanee
TTITLE11=Marlene Dietrich - Blonde Woman
TTITLE12=A Era dos Transatlanticos
EXTD=
EXTT0=
EXTT1=
EXTT2=
EXTT3=
EXTT4=
EXTT5=
EXTT6=
EXTT7=
EXTT8=
EXTT9=
EXTT10=
EXTT11=
EXTT12=
PLAYORDER=
